<svg width="78" height="68" viewBox="0 0 78 68" fill="none" xmlns="http://www.w3.org/2000/svg">
<path d="M39.1504 47.3331C44.9494 47.3331 49.6504 42.8559 49.6504 37.3331C49.6504 31.8103 44.9494 27.3331 39.1504 27.3331C33.3514 27.3331 28.6504 31.8103 28.6504 37.3331C28.6504 42.8559 33.3514 47.3331 39.1504 47.3331Z" stroke="#3D1FCC" stroke-width="7"/>
<path d="M31.3734 64H46.9274C57.8509 64 63.3144 64 67.2379 61.55C68.9308 60.4933 70.3888 59.1296 71.5289 57.5367C74.1504 53.87 74.1504 48.76 74.1504 38.5467C74.1504 28.3301 74.1504 23.2234 71.5289 19.5568C70.3889 17.9638 68.9309 16.6001 67.2379 15.5435C64.7179 13.9668 61.5609 13.4035 56.7274 13.2035C54.4209 13.2035 52.4364 11.5701 51.9849 9.45348C51.6398 7.90304 50.7433 6.5136 49.4469 5.51999C48.1504 4.52637 46.5335 3.98952 44.8694 4.00016H33.4314C29.9734 4.00016 26.9949 6.28348 26.3159 9.45348C25.8644 11.5701 23.8799 13.2035 21.5734 13.2035C16.7434 13.4035 13.5864 13.9701 11.0629 15.5435C9.37106 16.6003 7.9142 17.964 6.77539 19.5568C4.15039 23.2234 4.15039 28.3301 4.15039 38.5467C4.15039 48.76 4.15039 53.8667 6.77189 57.5367C7.90589 59.1233 9.36189 60.4867 11.0629 61.55C14.9864 64 20.4499 64 31.3734 64Z" stroke="#3D1FCC" stroke-width="7"/>
<path d="M63.6523 27.3331H60.1523" stroke="#3D1FCC" stroke-width="7" stroke-linecap="round"/>
</svg>
