<svg width="44" height="42" viewBox="0 0 44 42" fill="none" xmlns="http://www.w3.org/2000/svg">
<path d="M22.0975 7C24.0159 7 25.8558 7.7375 27.2123 9.05025C28.5688 10.363 29.3309 12.1435 29.3309 14C29.3309 15.8565 28.5688 17.637 27.2123 18.9497C25.8558 20.2625 24.0159 21 22.0975 21C20.1791 21 18.3393 20.2625 16.9828 18.9497C15.6263 17.637 14.8642 15.8565 14.8642 14C14.8642 12.1435 15.6263 10.363 16.9828 9.05025C18.3393 7.7375 20.1791 7 22.0975 7ZM22.0975 10.5C21.1383 10.5 20.2184 10.8687 19.5402 11.5251C18.8619 12.1815 18.4809 13.0717 18.4809 14C18.4809 14.9282 18.8619 15.8185 19.5402 16.4749C20.2184 17.1312 21.1383 17.5 22.0975 17.5C23.0567 17.5 23.9766 17.1312 24.6549 16.4749C25.3332 15.8185 25.7142 14.9282 25.7142 14C25.7142 13.0717 25.3332 12.1815 24.6549 11.5251C23.9766 10.8687 23.0567 10.5 22.0975 10.5ZM22.0975 22.75C26.9258 22.75 36.5642 25.0775 36.5642 29.75V34.9999H7.63086V29.75C7.63086 25.0775 17.2693 22.75 22.0975 22.75ZM22.0975 26.075C16.7268 26.075 11.0667 28.63 11.0667 29.75V31.675H33.1284V29.75C33.1284 28.63 27.4683 26.075 22.0975 26.075Z" fill="black"/>
</svg>
