<svg width="71" height="60" viewBox="0 0 71 60" fill="none" xmlns="http://www.w3.org/2000/svg">
<path d="M61.2389 0.604248H10.3019C5.31 0.604248 1.25 4.06129 1.25 8.31368V51.6814C1.25 55.9337 5.31 59.3927 10.3019 59.3927H61.2389C66.2297 59.3927 70.2919 55.9337 70.2919 51.6814V8.31368C70.2919 4.06222 66.2297 0.604248 61.2389 0.604248ZM48.605 15.8788C48.823 15.8789 49.0389 15.9156 49.2403 15.9867C49.4417 16.0579 49.6246 16.1621 49.7787 16.2935C49.9328 16.4249 50.0549 16.5808 50.1383 16.7523C50.2216 16.9239 50.2644 17.1078 50.2642 17.2934C50.2641 17.4791 50.221 17.6629 50.1374 17.8344C50.0538 18.0059 49.9314 18.1616 49.7771 18.2928C49.6229 18.424 49.4398 18.528 49.2383 18.599C49.0368 18.6699 48.8208 18.7064 48.6028 18.7062C48.1625 18.706 47.7403 18.5568 47.4291 18.2915C47.118 18.0262 46.9433 17.6665 46.9436 17.2916C46.9439 16.9166 47.1191 16.5571 47.4307 16.2922C47.7422 16.0272 48.1647 15.8785 48.605 15.8788ZM36.8505 6.88784C37.4692 6.89917 38.0582 7.11643 38.4911 7.49306C38.924 7.86969 39.1665 8.37573 39.1665 8.90274C39.1665 9.42975 38.924 9.93579 38.4911 10.3124C38.0582 10.6891 37.4692 10.9063 36.8505 10.9176C36.2317 10.9063 35.6427 10.6891 35.2098 10.3124C34.7769 9.93579 34.5345 9.42975 34.5345 8.90274C34.5345 8.37573 34.7769 7.86969 35.2098 7.49306C35.6427 7.11643 36.2317 6.89917 36.8505 6.88784ZM24.0164 6.87294C25.342 6.87294 26.4194 7.78004 26.4194 8.89948C26.4182 9.16707 26.3551 9.43184 26.2337 9.67865C26.1123 9.92546 25.9349 10.1495 25.7117 10.3379C25.4886 10.5263 25.224 10.6753 24.9331 10.7766C24.6422 10.8778 24.3307 10.9292 24.0164 10.9279C23.7024 10.929 23.3912 10.8774 23.1006 10.776C22.81 10.6747 22.5457 10.5255 22.3229 10.3371C22.1 10.1488 21.9229 9.92483 21.8018 9.67815C21.6806 9.43147 21.6177 9.16687 21.6167 8.89948C21.6167 7.78004 22.6897 6.87294 24.0164 6.87294ZM31.5808 49.0103L31.5698 52.5968H21.6036V51.09C21.6036 50.113 21.3816 49.4676 20.4727 48.7393L11.3158 40.4599C9.999 39.1493 9.27488 37.4815 9.27375 35.7568V23.2539C9.27375 22.6308 9.56434 22.0333 10.0816 21.5927C10.5989 21.1521 11.3005 20.9044 12.0322 20.9041C12.7659 20.9032 13.4702 21.15 13.9906 21.5904C14.5109 22.0309 14.8049 22.6291 14.8081 23.2539V32.3836C13.3414 32.9526 12.4555 34.1065 12.4555 35.3619C12.4555 36.1973 12.847 36.9926 13.5623 37.6064L19.2498 42.9214C19.5145 43.2008 19.8656 43.6348 20.0417 44.1181C20.1391 44.3761 20.1697 44.6546 20.1762 45.001H21.9798C21.97 44.5149 21.9241 44.0911 21.7589 43.6562C21.4537 42.8189 20.8391 42.1363 20.4759 41.7731L14.8727 36.662C14.4965 36.2962 14.3018 35.8202 14.3295 35.3345C14.3573 34.8488 14.6055 34.3913 15.0216 34.0583C15.4378 33.7253 15.9895 33.5429 16.5606 33.5494C17.1316 33.556 17.6773 33.751 18.0828 34.0935L29.7006 44.0269C31.7077 45.8178 31.5764 47.6432 31.5764 49.0085L31.5808 49.0103ZM37.6763 30.3905V21.2925H36.6503V30.3905C36.6503 31.0443 36.0291 31.5724 35.2623 31.5724C34.4967 31.5724 33.8689 31.0443 33.8689 30.3905V14.3998L33.0431 14.4017L31.2319 19.7856C31.2039 19.8871 31.1509 19.9823 31.0766 20.065C30.9838 20.1782 30.8584 20.2692 30.7125 20.3292C30.5665 20.3892 30.4049 20.4163 30.2431 20.4078C30.0805 20.416 29.9181 20.3884 29.7717 20.3275C29.6253 20.2667 29.4999 20.1746 29.4075 20.0604C29.3423 19.9851 29.2941 19.9001 29.2653 19.8099L27.4453 14.4017L26.5517 14.3998L29.2106 23.8629H26.8766V30.5852C26.8763 30.7173 26.8454 30.848 26.7858 30.97C26.7262 31.0919 26.6389 31.2026 26.529 31.2959C26.4191 31.3891 26.2888 31.463 26.1453 31.5133C26.0019 31.5636 25.8482 31.5894 25.6931 31.5891C25.5386 31.5889 25.3856 31.5627 25.2429 31.5121C25.1002 31.4616 24.9707 31.3875 24.8616 31.2943C24.7525 31.2011 24.6661 31.0905 24.6072 30.9688C24.5483 30.8471 24.5182 30.7168 24.5184 30.5852V23.8629H23.522V30.5852C23.522 31.1384 22.9905 31.5891 22.3408 31.5891C22.1861 31.589 22.033 31.5629 21.8902 31.5124C21.7474 31.4619 21.6177 31.3879 21.5085 31.2946C21.3993 31.2014 21.3128 31.0908 21.2538 30.969C21.1949 30.8473 21.1647 30.7169 21.165 30.5852V23.8629H18.7894L21.4767 14.3998L20.5798 14.4017L18.738 19.8667C18.5991 20.2848 18.0489 20.5158 17.5108 20.3845C16.9716 20.2522 16.6347 19.8536 16.8141 19.3284L18.7041 13.7209C19.4588 11.4802 21.6648 11.5491 21.6648 11.5491H26.3603C26.3603 11.5491 28.5609 11.4802 29.32 13.7209L30.2431 16.4608L31.1684 13.7209C31.9231 11.4802 34.1281 11.5491 34.1281 11.5491H40.1962C40.1962 11.5491 42.4023 11.4802 43.157 13.7209L45.0317 19.2846C45.0317 19.2846 46.5094 19.3991 46.5302 19.3991H51.0069C52.1816 19.3991 53.2152 20.2103 53.2152 21.2105V24.7812C53.2152 25.1258 52.8991 25.4033 52.4977 25.4033C52.402 25.4031 52.3073 25.3868 52.2191 25.3554C52.1308 25.324 52.0507 25.2781 51.9832 25.2204C51.9158 25.1626 51.8624 25.0941 51.826 25.0187C51.7897 24.9434 51.7711 24.8627 51.7714 24.7812V21.6427H51.0222V30.9065C51.0222 31.3647 50.5803 31.7354 50.0433 31.7354C49.5063 31.7354 49.0698 31.3638 49.0698 30.9065V25.9519H48.3053V30.9065C48.2968 31.1221 48.1903 31.3265 48.0081 31.4765C47.826 31.6265 47.5825 31.7103 47.3291 31.7103C47.0758 31.7103 46.8323 31.6265 46.6501 31.4765C46.468 31.3265 46.3614 31.1221 46.353 30.9065V20.9889C45.4014 20.7579 44.1075 20.445 43.8264 20.391C43.8144 20.3882 43.8078 20.3826 43.7947 20.3798C43.4786 20.3109 43.2139 20.1339 43.1187 19.8648L41.3567 14.3998L40.4587 14.398V30.3887C40.4587 31.0425 39.8298 31.5705 39.062 31.5705C38.8799 31.5704 38.6996 31.5397 38.5314 31.4803C38.3632 31.4208 38.2104 31.3337 38.0817 31.224C37.953 31.1142 37.851 30.984 37.7814 30.8407C37.7118 30.6973 37.6761 30.5438 37.6763 30.3887V30.3905ZM62.3294 35.7568C62.3287 37.4816 61.6045 39.1495 60.2873 40.4599L51.1316 48.7393C50.2227 49.4676 50.0006 50.113 50.0006 51.09V52.5968H40.0344L40.0234 49.0103C40.0234 47.6441 39.8922 45.8187 41.8992 44.0287L53.517 34.0953C53.9217 33.7496 54.4686 33.5518 55.0417 33.5437C55.6149 33.5357 56.1691 33.7181 56.5869 34.0523C57.0047 34.3865 57.2532 34.8461 57.2795 35.3337C57.3059 35.8213 57.1082 36.2984 56.7283 36.6639L51.125 41.7749C50.7619 42.1372 50.1472 42.8208 49.842 43.6581C49.6769 44.093 49.6309 44.5167 49.6211 45.0029H51.4247C51.4313 44.6564 51.4619 44.378 51.5592 44.12C51.7353 43.6376 52.0875 43.2027 52.3511 42.9233L58.0386 37.6073C58.3876 37.3137 58.665 36.9642 58.855 36.5791C59.0449 36.1939 59.1436 35.7806 59.1455 35.3628C59.1444 34.1084 58.2595 32.9535 56.7928 32.3845V23.2548C56.796 22.63 57.09 22.0318 57.6104 21.5914C58.1307 21.1509 58.835 20.9041 59.5687 20.9051C60.3004 20.9053 61.002 21.153 61.5193 21.5936C62.0366 22.0343 62.3272 22.6318 62.3272 23.2548V35.7577L62.3294 35.7568Z" fill="#3D1FCC"/>
</svg>
