<svg width="23" height="22" viewBox="0 0 23 22" fill="none" xmlns="http://www.w3.org/2000/svg">
<path d="M21.5445 17.1753L17.9021 13.6912L15.1004 12.584C16.0333 11.3151 16.5331 9.80126 16.5312 8.25C16.5312 4.08001 12.9845 0.6875 8.625 0.6875C4.26547 0.6875 0.71875 4.08001 0.71875 8.25C0.71875 12.42 4.26547 15.8125 8.625 15.8125C10.2609 15.8143 11.8566 15.328 13.1899 14.4213L14.3444 17.094L17.9867 20.5782C18.2203 20.8017 18.4976 20.9789 18.8028 21.0999C19.1081 21.2208 19.4352 21.283 19.7655 21.283C20.0959 21.2831 20.423 21.2208 20.7283 21.0999C21.0335 20.979 21.3108 20.8018 21.5444 20.5783C21.778 20.3549 21.9633 20.0896 22.0898 19.7977C22.2162 19.5057 22.2813 19.1928 22.2813 18.8768C22.2813 18.5608 22.2162 18.2479 22.0898 17.956C21.9634 17.664 21.7781 17.3987 21.5445 17.1753ZM2.15625 8.25C2.15625 4.83828 5.0582 2.0625 8.625 2.0625C12.1918 2.0625 15.0938 4.83828 15.0938 8.25C15.0938 11.6617 12.1918 14.4375 8.625 14.4375C5.0582 14.4375 2.15625 11.6617 2.15625 8.25ZM20.528 19.606C20.3256 19.7991 20.0515 19.9075 19.7656 19.9075C19.4798 19.9075 19.2056 19.7991 19.0033 19.606L15.5635 16.3158L14.4901 13.8307L17.0883 14.8573L20.5281 18.1476C20.7299 18.3411 20.8433 18.6034 20.8433 18.8768C20.8433 19.1502 20.7299 19.4124 20.528 19.606Z" fill="#755CEC"/>
</svg>
