<svg width="71" height="60" viewBox="0 0 71 60" fill="none" xmlns="http://www.w3.org/2000/svg">
<path d="M68.1165 36.5812C67.2484 35.8655 66.2379 35.3739 65.1637 35.1446C64.0895 34.9154 62.9804 34.9546 61.9226 35.2594L49.7215 38.2656C50.0054 36.9806 50.0142 35.6434 49.7472 34.3542C49.4802 33.065 48.9444 31.8574 48.1799 30.8217C47.4154 29.786 46.4421 28.9491 45.3329 28.3739C44.2237 27.7986 43.0073 27.4999 41.7751 27.5H27.1769C25.951 27.4967 24.7366 27.7538 23.6039 28.2564C22.4712 28.759 21.4426 29.4971 20.5777 30.4281L13.9814 37.5H5.61503C4.37758 37.5 3.19081 38.0268 2.3158 38.9645C1.44079 39.9021 0.949219 41.1739 0.949219 42.5L0.949219 55C0.949219 56.3261 1.44079 57.5978 2.3158 58.5355C3.19081 59.4732 4.37758 60 5.61503 60H35.9428C36.1335 60.0001 36.3236 59.9749 36.5085 59.925L55.1718 54.925C55.2907 54.8946 55.4069 54.8528 55.5188 54.8L66.8538 49.6313L66.9821 49.5687C68.0715 48.9854 69.0044 48.1145 69.6928 47.038C70.3813 45.9615 70.8027 44.7149 70.9174 43.4157C71.032 42.1165 70.8361 40.8073 70.3481 39.6116C69.8602 38.416 69.0962 37.3731 68.1282 36.5812H68.1165ZM5.61503 42.5H12.6137V55H5.61503V42.5ZM64.9379 45.0656L53.8566 50.1219L35.6512 55H17.2796V41.0344L23.8788 33.9656C24.3105 33.4993 24.8243 33.1296 25.3905 32.878C25.9567 32.6264 26.564 32.4979 27.1769 32.5H41.7751C42.7032 32.5 43.5932 32.8951 44.2495 33.5984C44.9057 34.3016 45.2744 35.2554 45.2744 36.25C45.2744 37.2446 44.9057 38.1984 44.2495 38.9016C43.5932 39.6049 42.7032 40 41.7751 40H33.6099C32.9912 40 32.3978 40.2634 31.9603 40.7322C31.5228 41.2011 31.277 41.837 31.277 42.5C31.277 43.163 31.5228 43.7989 31.9603 44.2678C32.3978 44.7366 32.9912 45 33.6099 45H42.9415C43.1171 44.9995 43.2921 44.9785 43.4635 44.9375L63.0016 40.1219L63.092 40.0969C63.6884 39.9194 64.325 39.9846 64.8793 40.2799C65.4336 40.5752 65.8664 41.0798 66.0944 41.6965C66.3224 42.3131 66.3295 42.9984 66.1144 43.6204C65.8993 44.2424 65.4771 44.7571 64.9292 45.0656H64.9379ZM48.7738 22.5C49.3502 22.5007 49.9256 22.4505 50.4943 22.35C51.134 24.3861 52.3043 26.1833 53.8669 27.5292C55.4295 28.8751 57.3191 29.7134 59.3121 29.9449C61.3052 30.1765 63.3185 29.7916 65.114 28.8359C66.9095 27.8801 68.412 26.3934 69.444 24.5516C70.476 22.7097 70.9943 20.5897 70.9375 18.4422C70.8808 16.2947 70.2515 14.2095 69.1239 12.4331C67.9964 10.6568 66.4178 9.26351 64.5747 8.41811C62.7317 7.57271 60.7013 7.31051 58.7236 7.6625C58.1077 5.70077 56.9987 3.95915 55.5187 2.62931C54.0386 1.29946 52.2449 0.432947 50.335 0.125119C48.425 -0.182709 46.4728 0.080085 44.6932 0.88458C42.9136 1.68907 41.3756 3.00408 40.2485 4.68489C39.1214 6.3657 38.4488 8.34715 38.3048 10.4112C38.1608 12.4752 38.5509 14.5418 39.4323 16.3835C40.3136 18.2253 41.652 19.7708 43.3002 20.8499C44.9483 21.9291 46.8423 22.5 48.7738 22.5ZM66.2706 18.75C66.2706 19.9861 65.9285 21.1945 65.2877 22.2223C64.6468 23.2501 63.7359 24.0512 62.6702 24.5243C61.6045 24.9973 60.4318 25.1211 59.3005 24.8799C58.1691 24.6388 57.1299 24.0435 56.3143 23.1694C55.4986 22.2953 54.9432 21.1817 54.7181 19.9693C54.4931 18.7569 54.6086 17.5003 55.05 16.3582C55.4914 15.2162 56.239 14.2401 57.1981 13.5533C58.1572 12.8666 59.2848 12.5 60.4383 12.5C61.9851 12.5 63.4686 13.1585 64.5624 14.3306C65.6561 15.5027 66.2706 17.0924 66.2706 18.75ZM48.7738 5C50.0461 5.00069 51.2833 5.44721 52.2968 6.2715C53.3103 7.09579 54.0444 8.25262 54.3873 9.56563C53.1925 10.4666 52.1863 11.6248 51.4331 12.9663C50.6799 14.3078 50.1963 15.803 50.0131 17.3563C49.6059 17.4505 49.1905 17.4987 48.7738 17.5C47.227 17.5 45.7435 16.8415 44.6498 15.6694C43.556 14.4973 42.9415 12.9076 42.9415 11.25C42.9415 9.5924 43.556 8.00269 44.6498 6.83059C45.7435 5.65848 47.227 5 48.7738 5Z" fill="#3D1FCC"/>
</svg>
